<svg xmlns="http://www.w3.org/2000/svg" xmlns:xlink="http://www.w3.org/1999/xlink" width="1260" zoomAndPan="magnify" viewBox="0 0 944.88 525.000007" height="700" preserveAspectRatio="xMidYMid meet" version="1.0"><defs><g/><clipPath id="2a543ecbab"><path d="M 0.839844 0 L 943.921875 0 L 943.921875 524 L 0.839844 524 Z M 0.839844 0 " clip-rule="nonzero"/></clipPath></defs><g clip-path="url(#2a543ecbab)"><path fill="#ffffff" d="M 0.839844 0 L 944.042969 0 L 944.042969 531.488281 L 0.839844 531.488281 Z M 0.839844 0 " fill-opacity="1" fill-rule="nonzero"/><path fill="#ffffff" d="M 0.839844 0 L 944.042969 0 L 944.042969 524 L 0.839844 524 Z M 0.839844 0 " fill-opacity="1" fill-rule="nonzero"/><path fill="#cbddd1" d="M 0.839844 0 L 944.042969 0 L 944.042969 524 L 0.839844 524 Z M 0.839844 0 " fill-opacity="1" fill-rule="nonzero"/></g><path fill="#7d9b76" d="M 457.949219 311.363281 C 457.949219 311.363281 477.59375 250.636719 428.375 237.792969 C 428.375 237.792969 421.34375 233.179688 420.917969 231.550781 C 420.496094 229.921875 415.699219 224.523438 412.46875 223.109375 C 412.46875 223.109375 409.664062 214.453125 407.851562 213.25 C 407.851562 213.25 411.683594 192.351562 407.039062 190.121094 C 402.421875 187.953125 395.78125 200.796875 395.78125 200.796875 C 395.78125 200.796875 384.3125 202 382.894531 201.398438 C 381.476562 200.796875 370.007812 189.339844 367.804688 191.148438 C 365.601562 192.957031 365.785156 196.785156 368.800781 212.855469 C 368.800781 212.855469 357.9375 225.128906 375.832031 242.796875 C 375.832031 242.796875 376.828125 244.816406 377.855469 248.433594 C 378.851562 252.054688 376.257812 254.375 380.058594 262.667969 C 383.890625 270.957031 391.527344 283.410156 390.320312 285.824219 C 390.320312 285.824219 391.132812 313.5625 388.296875 314.769531 C 385.460938 315.972656 380.148438 321.191406 386.488281 324.207031 C 386.488281 324.207031 386.515625 327.824219 388.6875 328.820312 C 393.425781 331.019531 398.347656 330.628906 400.550781 328.820312 C 402.753906 327.011719 404.171875 326.617188 406.191406 321.976562 L 411.019531 322.789062 C 410.6875 323.542969 409.90625 325.652344 410.78125 327.734375 C 410.78125 327.734375 411.503906 329.421875 413.648438 330.628906 C 417.058594 332.558594 427.949219 331.382812 441.800781 327.613281 C 441.800781 327.613281 448.230469 332.046875 458.703125 326.40625 C 469.175781 320.769531 494.523438 320.585938 501.164062 327.613281 C 507.800781 334.636719 481.488281 338.707031 481.488281 338.707031 C 481.488281 338.707031 472.433594 345.734375 484.292969 346.941406 C 496.152344 348.144531 525.546875 336.085938 513.65625 324.023438 C 501.765625 311.964844 478.046875 307.140625 457.949219 311.363281 Z M 457.949219 311.363281 " fill-opacity="1" fill-rule="nonzero"/><g fill="#fd6155" fill-opacity="0.302"><g transform="translate(348.130573, 232.742649)"><g><path d="M 76.132812 -62.921875 C 72.132812 -41.199219 56.441406 -30.519531 43.585938 -28.28125 C 30.890625 -26.074219 17.042969 -31.445312 15.195312 -42.050781 C 14.777344 -44.460938 14.625 -47.246094 15.113281 -50.148438 L 25.542969 -110.074219 C 27.550781 -121.351562 33.859375 -124.105469 37.71875 -124.777344 C 41.414062 -125.421875 44.375 -123.617188 45.214844 -118.796875 C 45.605469 -116.546875 45.46875 -113.542969 44.742188 -110.105469 C 44.457031 -108.898438 44.492188 -107.746094 44.6875 -106.621094 C 45.664062 -100.996094 51.941406 -97.285156 58.207031 -98.378906 C 63.832031 -99.355469 69.425781 -104.304688 70.472656 -115.414062 C 70.871094 -119.785156 70.683594 -123.726562 70.09375 -127.101562 C 67.019531 -144.777344 51.246094 -152.628906 32.929688 -149.441406 C 21.199219 -147.398438 3.878906 -139.417969 -0.441406 -113.832031 L -10.542969 -52.964844 C -11.445312 -47.675781 -11.457031 -42.046875 -10.617188 -37.226562 C -6.953125 -16.171875 15.265625 -2.65625 43.226562 -7.523438 C 65.5625 -11.414062 91.378906 -27.660156 95.859375 -60.890625 C 95.957031 -62.234375 95.921875 -63.386719 95.753906 -64.351562 C 94.773438 -69.972656 89.234375 -72.320312 84.25 -71.453125 C 80.074219 -70.726562 76.417969 -67.9375 76.132812 -62.921875 Z M 76.132812 -62.921875 "/></g></g></g><g fill="#fd6155" fill-opacity="0.302"><g transform="translate(426.708044, 219.064951)"><g><path d="M 91.300781 -71.851562 C 86.800781 -71.070312 82.296875 -67.472656 81.429688 -61.027344 C 78.605469 -40.171875 69.625 -31.820312 62.394531 -30.5625 C 59.664062 -30.085938 57.804688 -31.253906 57.359375 -33.824219 C 57.132812 -35.109375 57.175781 -36.773438 57.351562 -38.625 L 66.285156 -93.824219 C 66.59375 -95.863281 66.605469 -97.6875 66.324219 -99.292969 C 65.09375 -106.363281 58.667969 -109.054688 52.722656 -108.019531 C 48.222656 -107.234375 43.925781 -104.335938 42.054688 -99.871094 C 38.316406 -101.371094 31.628906 -102.691406 23.433594 -101.265625 C 12.828125 -99.417969 2.265625 -91.621094 0.078125 -78.492188 L -7.5 -32.632812 C -7.960938 -29.574219 -8.101562 -26.570312 -7.597656 -23.675781 C -5.277344 -10.339844 7.390625 -1.285156 21.53125 -3.75 C 29.085938 -5.0625 36.210938 -9.78125 41.234375 -16.117188 C 47.664062 -9.621094 59.296875 -10.320312 64.117188 -11.160156 C 77.453125 -13.480469 94.117188 -23.335938 99.871094 -51.160156 C 101.027344 -57.816406 102.097656 -62.144531 101.59375 -65.035156 C 100.644531 -70.5 95.960938 -72.664062 91.300781 -71.851562 Z M 37.992188 -64.230469 L 34.445312 -38.941406 C 32.890625 -27.910156 27.203125 -24.4375 23.828125 -23.851562 C 20.292969 -23.234375 18.132812 -25.175781 17.492188 -28.871094 C 17.128906 -30.960938 17.273438 -32.972656 17.503906 -34.503906 L 22.167969 -68.59375 C 23.511719 -78.925781 27.789062 -80.996094 30.359375 -81.445312 C 33.414062 -81.976562 37.320312 -79.507812 38.269531 -74.046875 C 38.691406 -71.636719 38.578125 -68.46875 37.992188 -64.230469 Z M 37.992188 -64.230469 "/></g></g></g><g fill="#fd6155" fill-opacity="0.302"><g transform="translate(511.070362, 204.380306)"><g><path d="M 49.480469 -55.300781 C 46.128906 -36.507812 37.488281 -26.226562 28.167969 -24.605469 C 22.382812 -23.597656 18.230469 -26.519531 17.476562 -30.855469 C 17.28125 -31.980469 17.378906 -33.324219 17.503906 -34.503906 L 25.449219 -82.078125 L 35.894531 -83.898438 C 44.089844 -85.324219 47.421875 -91.863281 46.496094 -97.167969 C 45.769531 -101.34375 42.394531 -104.566406 36.289062 -103.503906 L 29.058594 -102.242188 L 34.371094 -135.453125 C 34.496094 -136.632812 34.488281 -137.625 34.320312 -138.589844 C 33.285156 -144.535156 28.269531 -148.628906 21.199219 -147.398438 C 15.894531 -146.476562 12.039062 -141.996094 11.089844 -136.035156 L 4.472656 -97.964844 L -2.277344 -96.789062 C -10.957031 -95.277344 -13.699219 -89.171875 -12.804688 -84.03125 C -12.023438 -79.53125 -8.621094 -76.148438 -4.28125 -76.902344 L 1.023438 -77.828125 L -5.734375 -36.75 L -5.761719 -36.910156 C -6.375 -32.832031 -6.40625 -29.183594 -5.816406 -25.808594 C -2.964844 -9.417969 13.335938 -2.320312 29.890625 -5.203125 C 50.457031 -8.78125 64.996094 -27.042969 69.566406 -54.992188 C 69.691406 -56.171875 69.820312 -57.351562 69.652344 -58.316406 C 68.8125 -63.136719 63.621094 -65.378906 58.636719 -64.511719 C 54.621094 -63.8125 50.511719 -60.78125 49.480469 -55.300781 Z M 49.480469 -55.300781 "/></g></g></g><g fill="#fd6155" fill-opacity="0.502"><g transform="translate(340.508917, 224.240536)"><g><path d="M 76.132812 -62.921875 C 72.132812 -41.199219 56.441406 -30.519531 43.585938 -28.28125 C 30.890625 -26.074219 17.042969 -31.445312 15.195312 -42.050781 C 14.777344 -44.460938 14.625 -47.246094 15.113281 -50.148438 L 25.542969 -110.074219 C 27.550781 -121.351562 33.859375 -124.105469 37.71875 -124.777344 C 41.414062 -125.421875 44.375 -123.617188 45.214844 -118.796875 C 45.605469 -116.546875 45.46875 -113.542969 44.742188 -110.105469 C 44.457031 -108.898438 44.492188 -107.746094 44.6875 -106.621094 C 45.664062 -100.996094 51.941406 -97.285156 58.207031 -98.378906 C 63.832031 -99.355469 69.425781 -104.304688 70.472656 -115.414062 C 70.871094 -119.785156 70.683594 -123.726562 70.09375 -127.101562 C 67.019531 -144.777344 51.246094 -152.628906 32.929688 -149.441406 C 21.199219 -147.398438 3.878906 -139.417969 -0.441406 -113.832031 L -10.542969 -52.964844 C -11.445312 -47.675781 -11.457031 -42.046875 -10.617188 -37.226562 C -6.953125 -16.171875 15.265625 -2.65625 43.226562 -7.523438 C 65.5625 -11.414062 91.378906 -27.660156 95.859375 -60.890625 C 95.957031 -62.234375 95.921875 -63.386719 95.753906 -64.351562 C 94.773438 -69.972656 89.234375 -72.320312 84.25 -71.453125 C 80.074219 -70.726562 76.417969 -67.9375 76.132812 -62.921875 Z M 76.132812 -62.921875 "/></g></g></g><g fill="#fd6155" fill-opacity="0.502"><g transform="translate(419.086388, 210.562838)"><g><path d="M 91.300781 -71.851562 C 86.800781 -71.070312 82.296875 -67.472656 81.429688 -61.027344 C 78.605469 -40.171875 69.625 -31.820312 62.394531 -30.5625 C 59.664062 -30.085938 57.804688 -31.253906 57.359375 -33.824219 C 57.132812 -35.109375 57.175781 -36.773438 57.351562 -38.625 L 66.285156 -93.824219 C 66.59375 -95.863281 66.605469 -97.6875 66.324219 -99.292969 C 65.09375 -106.363281 58.667969 -109.054688 52.722656 -108.019531 C 48.222656 -107.234375 43.925781 -104.335938 42.054688 -99.871094 C 38.316406 -101.371094 31.628906 -102.691406 23.433594 -101.265625 C 12.828125 -99.417969 2.265625 -91.621094 0.078125 -78.492188 L -7.5 -32.632812 C -7.960938 -29.574219 -8.101562 -26.570312 -7.597656 -23.675781 C -5.277344 -10.339844 7.390625 -1.285156 21.53125 -3.75 C 29.085938 -5.0625 36.210938 -9.78125 41.234375 -16.117188 C 47.664062 -9.621094 59.296875 -10.320312 64.117188 -11.160156 C 77.453125 -13.480469 94.117188 -23.335938 99.871094 -51.160156 C 101.027344 -57.816406 102.097656 -62.144531 101.59375 -65.035156 C 100.644531 -70.5 95.960938 -72.664062 91.300781 -71.851562 Z M 37.992188 -64.230469 L 34.445312 -38.941406 C 32.890625 -27.910156 27.203125 -24.4375 23.828125 -23.851562 C 20.292969 -23.234375 18.132812 -25.175781 17.492188 -28.871094 C 17.128906 -30.960938 17.273438 -32.972656 17.503906 -34.503906 L 22.167969 -68.59375 C 23.511719 -78.925781 27.789062 -80.996094 30.359375 -81.445312 C 33.414062 -81.976562 37.320312 -79.507812 38.269531 -74.046875 C 38.691406 -71.636719 38.578125 -68.46875 37.992188 -64.230469 Z M 37.992188 -64.230469 "/></g></g></g><g fill="#fd6155" fill-opacity="0.502"><g transform="translate(503.448706, 195.878193)"><g><path d="M 49.480469 -55.300781 C 46.128906 -36.507812 37.488281 -26.226562 28.167969 -24.605469 C 22.382812 -23.597656 18.230469 -26.519531 17.476562 -30.855469 C 17.28125 -31.980469 17.378906 -33.324219 17.503906 -34.503906 L 25.449219 -82.078125 L 35.894531 -83.898438 C 44.089844 -85.324219 47.421875 -91.863281 46.496094 -97.167969 C 45.769531 -101.34375 42.394531 -104.566406 36.289062 -103.503906 L 29.058594 -102.242188 L 34.371094 -135.453125 C 34.496094 -136.632812 34.488281 -137.625 34.320312 -138.589844 C 33.285156 -144.535156 28.269531 -148.628906 21.199219 -147.398438 C 15.894531 -146.476562 12.039062 -141.996094 11.089844 -136.035156 L 4.472656 -97.964844 L -2.277344 -96.789062 C -10.957031 -95.277344 -13.699219 -89.171875 -12.804688 -84.03125 C -12.023438 -79.53125 -8.621094 -76.148438 -4.28125 -76.902344 L 1.023438 -77.828125 L -5.734375 -36.75 L -5.761719 -36.910156 C -6.375 -32.832031 -6.40625 -29.183594 -5.816406 -25.808594 C -2.964844 -9.417969 13.335938 -2.320312 29.890625 -5.203125 C 50.457031 -8.78125 64.996094 -27.042969 69.566406 -54.992188 C 69.691406 -56.171875 69.820312 -57.351562 69.652344 -58.316406 C 68.8125 -63.136719 63.621094 -65.378906 58.636719 -64.511719 C 54.621094 -63.8125 50.511719 -60.78125 49.480469 -55.300781 Z M 49.480469 -55.300781 "/></g></g></g><g fill="#272727" fill-opacity="1"><g transform="translate(332.887278, 215.738408)"><g><path d="M 76.132812 -62.921875 C 72.132812 -41.199219 56.441406 -30.519531 43.585938 -28.28125 C 30.890625 -26.074219 17.042969 -31.445312 15.195312 -42.050781 C 14.777344 -44.460938 14.625 -47.246094 15.113281 -50.148438 L 25.542969 -110.074219 C 27.550781 -121.351562 33.859375 -124.105469 37.71875 -124.777344 C 41.414062 -125.421875 44.375 -123.617188 45.214844 -118.796875 C 45.605469 -116.546875 45.46875 -113.542969 44.742188 -110.105469 C 44.457031 -108.898438 44.492188 -107.746094 44.6875 -106.621094 C 45.664062 -100.996094 51.941406 -97.285156 58.207031 -98.378906 C 63.832031 -99.355469 69.425781 -104.304688 70.472656 -115.414062 C 70.871094 -119.785156 70.683594 -123.726562 70.09375 -127.101562 C 67.019531 -144.777344 51.246094 -152.628906 32.929688 -149.441406 C 21.199219 -147.398438 3.878906 -139.417969 -0.441406 -113.832031 L -10.542969 -52.964844 C -11.445312 -47.675781 -11.457031 -42.046875 -10.617188 -37.226562 C -6.953125 -16.171875 15.265625 -2.65625 43.226562 -7.523438 C 65.5625 -11.414062 91.378906 -27.660156 95.859375 -60.890625 C 95.957031 -62.234375 95.921875 -63.386719 95.753906 -64.351562 C 94.773438 -69.972656 89.234375 -72.320312 84.25 -71.453125 C 80.074219 -70.726562 76.417969 -67.9375 76.132812 -62.921875 Z M 76.132812 -62.921875 "/></g></g></g><g fill="#272727" fill-opacity="1"><g transform="translate(411.464749, 202.06071)"><g><path d="M 91.300781 -71.851562 C 86.800781 -71.070312 82.296875 -67.472656 81.429688 -61.027344 C 78.605469 -40.171875 69.625 -31.820312 62.394531 -30.5625 C 59.664062 -30.085938 57.804688 -31.253906 57.359375 -33.824219 C 57.132812 -35.109375 57.175781 -36.773438 57.351562 -38.625 L 66.285156 -93.824219 C 66.59375 -95.863281 66.605469 -97.6875 66.324219 -99.292969 C 65.09375 -106.363281 58.667969 -109.054688 52.722656 -108.019531 C 48.222656 -107.234375 43.925781 -104.335938 42.054688 -99.871094 C 38.316406 -101.371094 31.628906 -102.691406 23.433594 -101.265625 C 12.828125 -99.417969 2.265625 -91.621094 0.078125 -78.492188 L -7.5 -32.632812 C -7.960938 -29.574219 -8.101562 -26.570312 -7.597656 -23.675781 C -5.277344 -10.339844 7.390625 -1.285156 21.53125 -3.75 C 29.085938 -5.0625 36.210938 -9.78125 41.234375 -16.117188 C 47.664062 -9.621094 59.296875 -10.320312 64.117188 -11.160156 C 77.453125 -13.480469 94.117188 -23.335938 99.871094 -51.160156 C 101.027344 -57.816406 102.097656 -62.144531 101.59375 -65.035156 C 100.644531 -70.5 95.960938 -72.664062 91.300781 -71.851562 Z M 37.992188 -64.230469 L 34.445312 -38.941406 C 32.890625 -27.910156 27.203125 -24.4375 23.828125 -23.851562 C 20.292969 -23.234375 18.132812 -25.175781 17.492188 -28.871094 C 17.128906 -30.960938 17.273438 -32.972656 17.503906 -34.503906 L 22.167969 -68.59375 C 23.511719 -78.925781 27.789062 -80.996094 30.359375 -81.445312 C 33.414062 -81.976562 37.320312 -79.507812 38.269531 -74.046875 C 38.691406 -71.636719 38.578125 -68.46875 37.992188 -64.230469 Z M 37.992188 -64.230469 "/></g></g></g><g fill="#272727" fill-opacity="1"><g transform="translate(495.827067, 187.376065)"><g><path d="M 49.480469 -55.300781 C 46.128906 -36.507812 37.488281 -26.226562 28.167969 -24.605469 C 22.382812 -23.597656 18.230469 -26.519531 17.476562 -30.855469 C 17.28125 -31.980469 17.378906 -33.324219 17.503906 -34.503906 L 25.449219 -82.078125 L 35.894531 -83.898438 C 44.089844 -85.324219 47.421875 -91.863281 46.496094 -97.167969 C 45.769531 -101.34375 42.394531 -104.566406 36.289062 -103.503906 L 29.058594 -102.242188 L 34.371094 -135.453125 C 34.496094 -136.632812 34.488281 -137.625 34.320312 -138.589844 C 33.285156 -144.535156 28.269531 -148.628906 21.199219 -147.398438 C 15.894531 -146.476562 12.039062 -141.996094 11.089844 -136.035156 L 4.472656 -97.964844 L -2.277344 -96.789062 C -10.957031 -95.277344 -13.699219 -89.171875 -12.804688 -84.03125 C -12.023438 -79.53125 -8.621094 -76.148438 -4.28125 -76.902344 L 1.023438 -77.828125 L -5.734375 -36.75 L -5.761719 -36.910156 C -6.375 -32.832031 -6.40625 -29.183594 -5.816406 -25.808594 C -2.964844 -9.417969 13.335938 -2.320312 29.890625 -5.203125 C 50.457031 -8.78125 64.996094 -27.042969 69.566406 -54.992188 C 69.691406 -56.171875 69.820312 -57.351562 69.652344 -58.316406 C 68.8125 -63.136719 63.621094 -65.378906 58.636719 -64.511719 C 54.621094 -63.8125 50.511719 -60.78125 49.480469 -55.300781 Z M 49.480469 -55.300781 "/></g></g></g><path fill="#457d58" d="M 498.347656 311.363281 C 498.347656 311.363281 517.992188 250.636719 468.773438 237.792969 C 468.773438 237.792969 461.742188 233.179688 461.320312 231.550781 C 460.898438 229.921875 456.097656 224.523438 452.871094 223.109375 C 452.871094 223.109375 450.0625 214.453125 448.253906 213.25 C 448.253906 213.25 452.085938 192.351562 447.4375 190.121094 C 442.820312 187.953125 436.179688 200.796875 436.179688 200.796875 C 436.179688 200.796875 424.714844 202 423.296875 201.398438 C 421.875 200.796875 410.410156 189.339844 408.207031 191.148438 C 406.003906 192.957031 406.183594 196.785156 409.203125 212.855469 C 409.203125 212.855469 398.339844 225.128906 416.234375 242.796875 C 416.234375 242.796875 417.230469 244.816406 418.253906 248.433594 C 419.25 252.054688 416.65625 254.375 420.457031 262.667969 C 424.292969 270.957031 431.925781 283.410156 430.71875 285.824219 C 430.71875 285.824219 431.535156 313.5625 428.695312 314.769531 C 425.859375 315.972656 420.550781 321.191406 426.886719 324.207031 C 426.886719 324.207031 426.917969 327.824219 429.089844 328.820312 C 433.828125 331.019531 438.746094 330.628906 440.949219 328.820312 C 443.152344 327.011719 444.570312 326.617188 446.59375 321.976562 L 451.421875 322.789062 C 451.089844 323.542969 450.304688 325.652344 451.179688 327.734375 C 451.179688 327.734375 451.902344 329.421875 454.046875 330.628906 C 457.457031 332.558594 468.351562 331.382812 482.203125 327.613281 C 482.203125 327.613281 488.628906 332.046875 499.101562 326.40625 C 509.574219 320.769531 534.921875 320.585938 541.5625 327.613281 C 548.203125 334.636719 521.886719 338.707031 521.886719 338.707031 C 521.886719 338.707031 512.832031 345.734375 524.691406 346.941406 C 536.554688 348.144531 565.945312 336.085938 554.054688 324.023438 C 542.167969 311.964844 518.445312 307.140625 498.347656 311.363281 Z M 498.347656 311.363281 " fill-opacity="1" fill-rule="nonzero"/><path fill="#f6f6e9" d="M 541.660156 311.363281 C 541.660156 311.363281 561.304688 250.636719 512.085938 237.792969 C 512.085938 237.792969 505.054688 233.179688 504.632812 231.550781 C 504.210938 229.921875 499.410156 224.523438 496.183594 223.109375 C 496.183594 223.109375 493.375 214.453125 491.566406 213.25 C 491.566406 213.25 495.398438 192.351562 490.75 190.121094 C 486.132812 187.953125 479.492188 200.796875 479.492188 200.796875 C 479.492188 200.796875 468.027344 202 466.609375 201.398438 C 465.191406 200.796875 453.722656 189.339844 451.519531 191.148438 C 449.316406 192.957031 449.496094 196.785156 452.515625 212.855469 C 452.515625 212.855469 441.652344 225.128906 459.546875 242.796875 C 459.546875 242.796875 460.542969 244.816406 461.566406 248.433594 C 462.5625 252.054688 459.96875 254.375 463.769531 262.667969 C 467.605469 270.957031 475.238281 283.410156 474.03125 285.824219 C 474.03125 285.824219 474.847656 313.5625 472.011719 314.769531 C 469.171875 315.972656 463.863281 321.191406 470.199219 324.207031 C 470.199219 324.207031 470.230469 327.824219 472.402344 328.820312 C 477.140625 331.019531 482.058594 330.628906 484.261719 328.820312 C 486.464844 327.011719 487.882812 326.617188 489.90625 321.976562 L 494.734375 322.789062 C 494.402344 323.542969 493.617188 325.652344 494.492188 327.734375 C 494.492188 327.734375 495.214844 329.421875 497.359375 330.628906 C 500.769531 332.558594 511.664062 331.382812 525.515625 327.613281 C 525.515625 327.613281 531.945312 332.046875 542.414062 326.40625 C 552.886719 320.769531 578.238281 320.585938 584.875 327.613281 C 591.515625 334.636719 565.199219 338.707031 565.199219 338.707031 C 565.199219 338.707031 556.144531 345.734375 568.007812 346.941406 C 579.867188 348.144531 609.257812 336.085938 597.371094 324.023438 C 585.480469 311.964844 561.757812 307.140625 541.660156 311.363281 Z M 541.660156 311.363281 " fill-opacity="1" fill-rule="nonzero"/><g fill="#fd6155" fill-opacity="0.302"><g transform="translate(271.962242, 504.449352)"><g><path d="M 124.28125 -162.03125 L 53.414062 -149.695312 C 44.253906 -148.101562 41.347656 -141.964844 42.242188 -136.824219 C 43.082031 -132.003906 47.429688 -127.957031 53.214844 -128.964844 L 62.855469 -130.644531 L 57.558594 -103.066406 L 50.164062 -101.777344 C 41.488281 -100.269531 38.230469 -94.238281 39.128906 -89.097656 C 39.996094 -84.113281 44.691406 -79.964844 52.402344 -81.308594 L 54.011719 -81.585938 L 48.445312 -49.824219 C 45.613281 -33.765625 39.6875 -29.757812 31.332031 -28.300781 C 25.546875 -27.292969 20.859375 -30.453125 18.742188 -34.058594 C 18.867188 -35.238281 18.832031 -36.390625 18.636719 -37.515625 C 17.347656 -44.90625 9.976562 -48.261719 3.710938 -47.167969 C -2.71875 -46.050781 -8.363281 -40.433594 -6.570312 -30.148438 C -3.914062 -14.882812 13.980469 -2.433594 35.03125 -6.097656 C 51.582031 -8.980469 66.5 -19.355469 71.183594 -46.664062 C 73.082031 -58.582031 75.867188 -73.96875 77.925781 -85.914062 L 87.566406 -87.59375 C 97.371094 -89.300781 100.246094 -95.597656 99.324219 -100.898438 C 98.511719 -105.558594 94.675781 -109.527344 89.855469 -108.6875 L 81.5 -107.234375 L 85.996094 -134.671875 L 123.757812 -141.246094 C 132.703125 -143.132812 135.664062 -148.945312 134.769531 -154.089844 C 133.929688 -158.910156 129.742188 -162.980469 124.28125 -162.03125 Z M 124.28125 -162.03125 "/></g></g></g><g fill="#fd6155" fill-opacity="0.302"><g transform="translate(378.981877, 485.820829)"><g><path d="M 91.300781 -71.851562 C 86.800781 -71.070312 82.296875 -67.472656 81.429688 -61.027344 C 78.605469 -40.171875 69.625 -31.820312 62.394531 -30.5625 C 59.664062 -30.085938 57.804688 -31.253906 57.359375 -33.824219 C 57.132812 -35.109375 57.175781 -36.773438 57.351562 -38.625 L 66.285156 -93.824219 C 66.59375 -95.863281 66.605469 -97.6875 66.324219 -99.292969 C 65.09375 -106.363281 58.667969 -109.054688 52.722656 -108.019531 C 48.222656 -107.234375 43.925781 -104.335938 42.054688 -99.871094 C 38.316406 -101.371094 31.628906 -102.691406 23.433594 -101.265625 C 12.828125 -99.417969 2.265625 -91.621094 0.078125 -78.492188 L -7.5 -32.632812 C -7.960938 -29.574219 -8.101562 -26.570312 -7.597656 -23.675781 C -5.277344 -10.339844 7.390625 -1.285156 21.53125 -3.75 C 29.085938 -5.0625 36.210938 -9.78125 41.234375 -16.117188 C 47.664062 -9.621094 59.296875 -10.320312 64.117188 -11.160156 C 77.453125 -13.480469 94.117188 -23.335938 99.871094 -51.160156 C 101.027344 -57.816406 102.097656 -62.144531 101.59375 -65.035156 C 100.644531 -70.5 95.960938 -72.664062 91.300781 -71.851562 Z M 37.992188 -64.230469 L 34.445312 -38.941406 C 32.890625 -27.910156 27.203125 -24.4375 23.828125 -23.851562 C 20.292969 -23.234375 18.132812 -25.175781 17.492188 -28.871094 C 17.128906 -30.960938 17.273438 -32.972656 17.503906 -34.503906 L 22.167969 -68.59375 C 23.511719 -78.925781 27.789062 -80.996094 30.359375 -81.445312 C 33.414062 -81.976562 37.320312 -79.507812 38.269531 -74.046875 C 38.691406 -71.636719 38.578125 -68.46875 37.992188 -64.230469 Z M 37.992188 -64.230469 "/></g></g></g><g fill="#fd6155" fill-opacity="0.302"><g transform="translate(463.344194, 471.136184)"><g><path d="M 69.46875 -61.265625 C 64.882812 -39.109375 50.636719 -28.683594 38.425781 -26.554688 C 27.335938 -24.625 19.148438 -29.824219 17.71875 -38.019531 C 17.414062 -39.785156 17.398438 -41.769531 17.675781 -43.972656 L 22.640625 -73.476562 C 23.414062 -77.585938 26.210938 -80.554688 28.78125 -81.003906 C 31.996094 -81.5625 33.9375 -79.914062 34.414062 -77.183594 C 34.71875 -75.414062 34.414062 -73.375 33.679688 -70.929688 C 33.15625 -69.183594 32.953125 -67.492188 33.234375 -65.882812 C 34.210938 -60.261719 40.269531 -56.84375 45.894531 -57.824219 C 50.554688 -58.632812 55.035156 -62.394531 56.640625 -70.289062 C 57.492188 -74.90625 57.460938 -78.875 56.820312 -82.574219 C 54.191406 -97.679688 40.144531 -104.171875 26.324219 -101.769531 C 13.628906 -99.558594 1.257812 -89.789062 -1.589844 -71.910156 L -6.050781 -43.316406 C -6.664062 -39.238281 -6.636719 -35.269531 -6.019531 -31.734375 C -2.804688 -13.253906 15.585938 -2.714844 39.210938 -6.824219 C 62.992188 -10.964844 84.105469 -28.546875 89.296875 -59.582031 C 89.585938 -60.792969 89.550781 -61.945312 89.382812 -62.910156 C 88.484375 -68.050781 82.945312 -70.398438 77.964844 -69.53125 C 73.945312 -68.832031 70.265625 -66.203125 69.46875 -61.265625 Z M 69.46875 -61.265625 "/></g></g></g><g fill="#fd6155" fill-opacity="0.302"><g transform="translate(535.172694, 458.633256)"><g><path d="M 49.480469 -55.300781 C 46.128906 -36.507812 37.488281 -26.226562 28.167969 -24.605469 C 22.382812 -23.597656 18.230469 -26.519531 17.476562 -30.855469 C 17.28125 -31.980469 17.378906 -33.324219 17.503906 -34.503906 L 25.449219 -82.078125 L 35.894531 -83.898438 C 44.089844 -85.324219 47.421875 -91.863281 46.496094 -97.167969 C 45.769531 -101.34375 42.394531 -104.566406 36.289062 -103.503906 L 29.058594 -102.242188 L 34.371094 -135.453125 C 34.496094 -136.632812 34.488281 -137.625 34.320312 -138.589844 C 33.285156 -144.535156 28.269531 -148.628906 21.199219 -147.398438 C 15.894531 -146.476562 12.039062 -141.996094 11.089844 -136.035156 L 4.472656 -97.964844 L -2.277344 -96.789062 C -10.957031 -95.277344 -13.699219 -89.171875 -12.804688 -84.03125 C -12.023438 -79.53125 -8.621094 -76.148438 -4.28125 -76.902344 L 1.023438 -77.828125 L -5.734375 -36.75 L -5.761719 -36.910156 C -6.375 -32.832031 -6.40625 -29.183594 -5.816406 -25.808594 C -2.964844 -9.417969 13.335938 -2.320312 29.890625 -5.203125 C 50.457031 -8.78125 64.996094 -27.042969 69.566406 -54.992188 C 69.691406 -56.171875 69.820312 -57.351562 69.652344 -58.316406 C 68.8125 -63.136719 63.621094 -65.378906 58.636719 -64.511719 C 54.621094 -63.8125 50.511719 -60.78125 49.480469 -55.300781 Z M 49.480469 -55.300781 "/></g></g></g><g fill="#fd6155" fill-opacity="0.302"><g transform="translate(587.718368, 449.48682)"><g><path d="M 77.414062 -60.328125 C 75.207031 -50.175781 70.730469 -42.609375 64.09375 -36.984375 C 64.050781 -39.128906 64.035156 -41.113281 63.671875 -43.203125 C 62.050781 -52.523438 55.53125 -60.492188 49.714844 -67.261719 C 45.550781 -72.167969 41.386719 -77.070312 39.875 -81.941406 C 44.039062 -84.652344 46.679688 -90.410156 45.839844 -95.230469 C 44.636719 -102.140625 38.214844 -107.644531 30.179688 -106.246094 C 24.074219 -105.183594 18.5 -101.066406 16.539062 -94.269531 C 12.398438 -80.964844 7.800781 -67.417969 3.472656 -54.246094 C -6.820312 -49.640625 -9.996094 -36.503906 -8.207031 -26.21875 C -5.464844 -10.472656 12.410156 -1 40.851562 -5.953125 C 68.8125 -10.820312 92.035156 -25.789062 97.632812 -60.207031 C 97.84375 -60.90625 97.703125 -61.707031 97.589844 -62.351562 C 96.78125 -67.011719 90.890625 -69.464844 85.746094 -68.566406 C 81.890625 -67.898438 78.371094 -65.296875 77.414062 -60.328125 Z M 25.71875 -55.800781 L 26.632812 -59.105469 C 32.460938 -54.160156 37.660156 -47.117188 38.972656 -39.566406 C 40.289062 -32.011719 37.363281 -25.046875 28.902344 -23.242188 C 23.4375 -22.292969 18.199219 -23.863281 15.703125 -27.734375 C 17.042969 -27.636719 18.328125 -27.859375 19.453125 -28.054688 C 28.773438 -29.675781 32.867188 -38.503906 31.496094 -46.375 C 30.855469 -50.074219 28.925781 -53.546875 25.71875 -55.800781 Z M 25.71875 -55.800781 "/></g></g></g><g fill="#fd6155" fill-opacity="0.502"><g transform="translate(264.340586, 495.947246)"><g><path d="M 124.28125 -162.03125 L 53.414062 -149.695312 C 44.253906 -148.101562 41.347656 -141.964844 42.242188 -136.824219 C 43.082031 -132.003906 47.429688 -127.957031 53.214844 -128.964844 L 62.855469 -130.644531 L 57.558594 -103.066406 L 50.164062 -101.777344 C 41.488281 -100.269531 38.230469 -94.238281 39.128906 -89.097656 C 39.996094 -84.113281 44.691406 -79.964844 52.402344 -81.308594 L 54.011719 -81.585938 L 48.445312 -49.824219 C 45.613281 -33.765625 39.6875 -29.757812 31.332031 -28.300781 C 25.546875 -27.292969 20.859375 -30.453125 18.742188 -34.058594 C 18.867188 -35.238281 18.832031 -36.390625 18.636719 -37.515625 C 17.347656 -44.90625 9.976562 -48.261719 3.710938 -47.167969 C -2.71875 -46.050781 -8.363281 -40.433594 -6.570312 -30.148438 C -3.914062 -14.882812 13.980469 -2.433594 35.03125 -6.097656 C 51.582031 -8.980469 66.5 -19.355469 71.183594 -46.664062 C 73.082031 -58.582031 75.867188 -73.96875 77.925781 -85.914062 L 87.566406 -87.59375 C 97.371094 -89.300781 100.246094 -95.597656 99.324219 -100.898438 C 98.511719 -105.558594 94.675781 -109.527344 89.855469 -108.6875 L 81.5 -107.234375 L 85.996094 -134.671875 L 123.757812 -141.246094 C 132.703125 -143.132812 135.664062 -148.945312 134.769531 -154.089844 C 133.929688 -158.910156 129.742188 -162.980469 124.28125 -162.03125 Z M 124.28125 -162.03125 "/></g></g></g><g fill="#fd6155" fill-opacity="0.502"><g transform="translate(371.360221, 477.318723)"><g><path d="M 91.300781 -71.851562 C 86.800781 -71.070312 82.296875 -67.472656 81.429688 -61.027344 C 78.605469 -40.171875 69.625 -31.820312 62.394531 -30.5625 C 59.664062 -30.085938 57.804688 -31.253906 57.359375 -33.824219 C 57.132812 -35.109375 57.175781 -36.773438 57.351562 -38.625 L 66.285156 -93.824219 C 66.59375 -95.863281 66.605469 -97.6875 66.324219 -99.292969 C 65.09375 -106.363281 58.667969 -109.054688 52.722656 -108.019531 C 48.222656 -107.234375 43.925781 -104.335938 42.054688 -99.871094 C 38.316406 -101.371094 31.628906 -102.691406 23.433594 -101.265625 C 12.828125 -99.417969 2.265625 -91.621094 0.078125 -78.492188 L -7.5 -32.632812 C -7.960938 -29.574219 -8.101562 -26.570312 -7.597656 -23.675781 C -5.277344 -10.339844 7.390625 -1.285156 21.53125 -3.75 C 29.085938 -5.0625 36.210938 -9.78125 41.234375 -16.117188 C 47.664062 -9.621094 59.296875 -10.320312 64.117188 -11.160156 C 77.453125 -13.480469 94.117188 -23.335938 99.871094 -51.160156 C 101.027344 -57.816406 102.097656 -62.144531 101.59375 -65.035156 C 100.644531 -70.5 95.960938 -72.664062 91.300781 -71.851562 Z M 37.992188 -64.230469 L 34.445312 -38.941406 C 32.890625 -27.910156 27.203125 -24.4375 23.828125 -23.851562 C 20.292969 -23.234375 18.132812 -25.175781 17.492188 -28.871094 C 17.128906 -30.960938 17.273438 -32.972656 17.503906 -34.503906 L 22.167969 -68.59375 C 23.511719 -78.925781 27.789062 -80.996094 30.359375 -81.445312 C 33.414062 -81.976562 37.320312 -79.507812 38.269531 -74.046875 C 38.691406 -71.636719 38.578125 -68.46875 37.992188 -64.230469 Z M 37.992188 -64.230469 "/></g></g></g><g fill="#fd6155" fill-opacity="0.502"><g transform="translate(455.722538, 462.634078)"><g><path d="M 69.46875 -61.265625 C 64.882812 -39.109375 50.636719 -28.683594 38.425781 -26.554688 C 27.335938 -24.625 19.148438 -29.824219 17.71875 -38.019531 C 17.414062 -39.785156 17.398438 -41.769531 17.675781 -43.972656 L 22.640625 -73.476562 C 23.414062 -77.585938 26.210938 -80.554688 28.78125 -81.003906 C 31.996094 -81.5625 33.9375 -79.914062 34.414062 -77.183594 C 34.71875 -75.414062 34.414062 -73.375 33.679688 -70.929688 C 33.15625 -69.183594 32.953125 -67.492188 33.234375 -65.882812 C 34.210938 -60.261719 40.269531 -56.84375 45.894531 -57.824219 C 50.554688 -58.632812 55.035156 -62.394531 56.640625 -70.289062 C 57.492188 -74.90625 57.460938 -78.875 56.820312 -82.574219 C 54.191406 -97.679688 40.144531 -104.171875 26.324219 -101.769531 C 13.628906 -99.558594 1.257812 -89.789062 -1.589844 -71.910156 L -6.050781 -43.316406 C -6.664062 -39.238281 -6.636719 -35.269531 -6.019531 -31.734375 C -2.804688 -13.253906 15.585938 -2.714844 39.210938 -6.824219 C 62.992188 -10.964844 84.105469 -28.546875 89.296875 -59.582031 C 89.585938 -60.792969 89.550781 -61.945312 89.382812 -62.910156 C 88.484375 -68.050781 82.945312 -70.398438 77.964844 -69.53125 C 73.945312 -68.832031 70.265625 -66.203125 69.46875 -61.265625 Z M 69.46875 -61.265625 "/></g></g></g><g fill="#fd6155" fill-opacity="0.502"><g transform="translate(527.551038, 450.13115)"><g><path d="M 49.480469 -55.300781 C 46.128906 -36.507812 37.488281 -26.226562 28.167969 -24.605469 C 22.382812 -23.597656 18.230469 -26.519531 17.476562 -30.855469 C 17.28125 -31.980469 17.378906 -33.324219 17.503906 -34.503906 L 25.449219 -82.078125 L 35.894531 -83.898438 C 44.089844 -85.324219 47.421875 -91.863281 46.496094 -97.167969 C 45.769531 -101.34375 42.394531 -104.566406 36.289062 -103.503906 L 29.058594 -102.242188 L 34.371094 -135.453125 C 34.496094 -136.632812 34.488281 -137.625 34.320312 -138.589844 C 33.285156 -144.535156 28.269531 -148.628906 21.199219 -147.398438 C 15.894531 -146.476562 12.039062 -141.996094 11.089844 -136.035156 L 4.472656 -97.964844 L -2.277344 -96.789062 C -10.957031 -95.277344 -13.699219 -89.171875 -12.804688 -84.03125 C -12.023438 -79.53125 -8.621094 -76.148438 -4.28125 -76.902344 L 1.023438 -77.828125 L -5.734375 -36.75 L -5.761719 -36.910156 C -6.375 -32.832031 -6.40625 -29.183594 -5.816406 -25.808594 C -2.964844 -9.417969 13.335938 -2.320312 29.890625 -5.203125 C 50.457031 -8.78125 64.996094 -27.042969 69.566406 -54.992188 C 69.691406 -56.171875 69.820312 -57.351562 69.652344 -58.316406 C 68.8125 -63.136719 63.621094 -65.378906 58.636719 -64.511719 C 54.621094 -63.8125 50.511719 -60.78125 49.480469 -55.300781 Z M 49.480469 -55.300781 "/></g></g></g><g fill="#fd6155" fill-opacity="0.502"><g transform="translate(580.096713, 440.984714)"><g><path d="M 77.414062 -60.328125 C 75.207031 -50.175781 70.730469 -42.609375 64.09375 -36.984375 C 64.050781 -39.128906 64.035156 -41.113281 63.671875 -43.203125 C 62.050781 -52.523438 55.53125 -60.492188 49.714844 -67.261719 C 45.550781 -72.167969 41.386719 -77.070312 39.875 -81.941406 C 44.039062 -84.652344 46.679688 -90.410156 45.839844 -95.230469 C 44.636719 -102.140625 38.214844 -107.644531 30.179688 -106.246094 C 24.074219 -105.183594 18.5 -101.066406 16.539062 -94.269531 C 12.398438 -80.964844 7.800781 -67.417969 3.472656 -54.246094 C -6.820312 -49.640625 -9.996094 -36.503906 -8.207031 -26.21875 C -5.464844 -10.472656 12.410156 -1 40.851562 -5.953125 C 68.8125 -10.820312 92.035156 -25.789062 97.632812 -60.207031 C 97.84375 -60.90625 97.703125 -61.707031 97.589844 -62.351562 C 96.78125 -67.011719 90.890625 -69.464844 85.746094 -68.566406 C 81.890625 -67.898438 78.371094 -65.296875 77.414062 -60.328125 Z M 25.71875 -55.800781 L 26.632812 -59.105469 C 32.460938 -54.160156 37.660156 -47.117188 38.972656 -39.566406 C 40.289062 -32.011719 37.363281 -25.046875 28.902344 -23.242188 C 23.4375 -22.292969 18.199219 -23.863281 15.703125 -27.734375 C 17.042969 -27.636719 18.328125 -27.859375 19.453125 -28.054688 C 28.773438 -29.675781 32.867188 -38.503906 31.496094 -46.375 C 30.855469 -50.074219 28.925781 -53.546875 25.71875 -55.800781 Z M 25.71875 -55.800781 "/></g></g></g><g fill="#272727" fill-opacity="1"><g transform="translate(256.718947, 487.445111)"><g><path d="M 124.28125 -162.03125 L 53.414062 -149.695312 C 44.253906 -148.101562 41.347656 -141.964844 42.242188 -136.824219 C 43.082031 -132.003906 47.429688 -127.957031 53.214844 -128.964844 L 62.855469 -130.644531 L 57.558594 -103.066406 L 50.164062 -101.777344 C 41.488281 -100.269531 38.230469 -94.238281 39.128906 -89.097656 C 39.996094 -84.113281 44.691406 -79.964844 52.402344 -81.308594 L 54.011719 -81.585938 L 48.445312 -49.824219 C 45.613281 -33.765625 39.6875 -29.757812 31.332031 -28.300781 C 25.546875 -27.292969 20.859375 -30.453125 18.742188 -34.058594 C 18.867188 -35.238281 18.832031 -36.390625 18.636719 -37.515625 C 17.347656 -44.90625 9.976562 -48.261719 3.710938 -47.167969 C -2.71875 -46.050781 -8.363281 -40.433594 -6.570312 -30.148438 C -3.914062 -14.882812 13.980469 -2.433594 35.03125 -6.097656 C 51.582031 -8.980469 66.5 -19.355469 71.183594 -46.664062 C 73.082031 -58.582031 75.867188 -73.96875 77.925781 -85.914062 L 87.566406 -87.59375 C 97.371094 -89.300781 100.246094 -95.597656 99.324219 -100.898438 C 98.511719 -105.558594 94.675781 -109.527344 89.855469 -108.6875 L 81.5 -107.234375 L 85.996094 -134.671875 L 123.757812 -141.246094 C 132.703125 -143.132812 135.664062 -148.945312 134.769531 -154.089844 C 133.929688 -158.910156 129.742188 -162.980469 124.28125 -162.03125 Z M 124.28125 -162.03125 "/></g></g></g><g fill="#272727" fill-opacity="1"><g transform="translate(363.738582, 468.816589)"><g><path d="M 91.300781 -71.851562 C 86.800781 -71.070312 82.296875 -67.472656 81.429688 -61.027344 C 78.605469 -40.171875 69.625 -31.820312 62.394531 -30.5625 C 59.664062 -30.085938 57.804688 -31.253906 57.359375 -33.824219 C 57.132812 -35.109375 57.175781 -36.773438 57.351562 -38.625 L 66.285156 -93.824219 C 66.59375 -95.863281 66.605469 -97.6875 66.324219 -99.292969 C 65.09375 -106.363281 58.667969 -109.054688 52.722656 -108.019531 C 48.222656 -107.234375 43.925781 -104.335938 42.054688 -99.871094 C 38.316406 -101.371094 31.628906 -102.691406 23.433594 -101.265625 C 12.828125 -99.417969 2.265625 -91.621094 0.078125 -78.492188 L -7.5 -32.632812 C -7.960938 -29.574219 -8.101562 -26.570312 -7.597656 -23.675781 C -5.277344 -10.339844 7.390625 -1.285156 21.53125 -3.75 C 29.085938 -5.0625 36.210938 -9.78125 41.234375 -16.117188 C 47.664062 -9.621094 59.296875 -10.320312 64.117188 -11.160156 C 77.453125 -13.480469 94.117188 -23.335938 99.871094 -51.160156 C 101.027344 -57.816406 102.097656 -62.144531 101.59375 -65.035156 C 100.644531 -70.5 95.960938 -72.664062 91.300781 -71.851562 Z M 37.992188 -64.230469 L 34.445312 -38.941406 C 32.890625 -27.910156 27.203125 -24.4375 23.828125 -23.851562 C 20.292969 -23.234375 18.132812 -25.175781 17.492188 -28.871094 C 17.128906 -30.960938 17.273438 -32.972656 17.503906 -34.503906 L 22.167969 -68.59375 C 23.511719 -78.925781 27.789062 -80.996094 30.359375 -81.445312 C 33.414062 -81.976562 37.320312 -79.507812 38.269531 -74.046875 C 38.691406 -71.636719 38.578125 -68.46875 37.992188 -64.230469 Z M 37.992188 -64.230469 "/></g></g></g><g fill="#272727" fill-opacity="1"><g transform="translate(448.100899, 454.131944)"><g><path d="M 69.46875 -61.265625 C 64.882812 -39.109375 50.636719 -28.683594 38.425781 -26.554688 C 27.335938 -24.625 19.148438 -29.824219 17.71875 -38.019531 C 17.414062 -39.785156 17.398438 -41.769531 17.675781 -43.972656 L 22.640625 -73.476562 C 23.414062 -77.585938 26.210938 -80.554688 28.78125 -81.003906 C 31.996094 -81.5625 33.9375 -79.914062 34.414062 -77.183594 C 34.71875 -75.414062 34.414062 -73.375 33.679688 -70.929688 C 33.15625 -69.183594 32.953125 -67.492188 33.234375 -65.882812 C 34.210938 -60.261719 40.269531 -56.84375 45.894531 -57.824219 C 50.554688 -58.632812 55.035156 -62.394531 56.640625 -70.289062 C 57.492188 -74.90625 57.460938 -78.875 56.820312 -82.574219 C 54.191406 -97.679688 40.144531 -104.171875 26.324219 -101.769531 C 13.628906 -99.558594 1.257812 -89.789062 -1.589844 -71.910156 L -6.050781 -43.316406 C -6.664062 -39.238281 -6.636719 -35.269531 -6.019531 -31.734375 C -2.804688 -13.253906 15.585938 -2.714844 39.210938 -6.824219 C 62.992188 -10.964844 84.105469 -28.546875 89.296875 -59.582031 C 89.585938 -60.792969 89.550781 -61.945312 89.382812 -62.910156 C 88.484375 -68.050781 82.945312 -70.398438 77.964844 -69.53125 C 73.945312 -68.832031 70.265625 -66.203125 69.46875 -61.265625 Z M 69.46875 -61.265625 "/></g></g></g><g fill="#272727" fill-opacity="1"><g transform="translate(519.929399, 441.629015)"><g><path d="M 49.480469 -55.300781 C 46.128906 -36.507812 37.488281 -26.226562 28.167969 -24.605469 C 22.382812 -23.597656 18.230469 -26.519531 17.476562 -30.855469 C 17.28125 -31.980469 17.378906 -33.324219 17.503906 -34.503906 L 25.449219 -82.078125 L 35.894531 -83.898438 C 44.089844 -85.324219 47.421875 -91.863281 46.496094 -97.167969 C 45.769531 -101.34375 42.394531 -104.566406 36.289062 -103.503906 L 29.058594 -102.242188 L 34.371094 -135.453125 C 34.496094 -136.632812 34.488281 -137.625 34.320312 -138.589844 C 33.285156 -144.535156 28.269531 -148.628906 21.199219 -147.398438 C 15.894531 -146.476562 12.039062 -141.996094 11.089844 -136.035156 L 4.472656 -97.964844 L -2.277344 -96.789062 C -10.957031 -95.277344 -13.699219 -89.171875 -12.804688 -84.03125 C -12.023438 -79.53125 -8.621094 -76.148438 -4.28125 -76.902344 L 1.023438 -77.828125 L -5.734375 -36.75 L -5.761719 -36.910156 C -6.375 -32.832031 -6.40625 -29.183594 -5.816406 -25.808594 C -2.964844 -9.417969 13.335938 -2.320312 29.890625 -5.203125 C 50.457031 -8.78125 64.996094 -27.042969 69.566406 -54.992188 C 69.691406 -56.171875 69.820312 -57.351562 69.652344 -58.316406 C 68.8125 -63.136719 63.621094 -65.378906 58.636719 -64.511719 C 54.621094 -63.8125 50.511719 -60.78125 49.480469 -55.300781 Z M 49.480469 -55.300781 "/></g></g></g><g fill="#272727" fill-opacity="1"><g transform="translate(572.475073, 432.482579)"><g><path d="M 77.414062 -60.328125 C 75.207031 -50.175781 70.730469 -42.609375 64.09375 -36.984375 C 64.050781 -39.128906 64.035156 -41.113281 63.671875 -43.203125 C 62.050781 -52.523438 55.53125 -60.492188 49.714844 -67.261719 C 45.550781 -72.167969 41.386719 -77.070312 39.875 -81.941406 C 44.039062 -84.652344 46.679688 -90.410156 45.839844 -95.230469 C 44.636719 -102.140625 38.214844 -107.644531 30.179688 -106.246094 C 24.074219 -105.183594 18.5 -101.066406 16.539062 -94.269531 C 12.398438 -80.964844 7.800781 -67.417969 3.472656 -54.246094 C -6.820312 -49.640625 -9.996094 -36.503906 -8.207031 -26.21875 C -5.464844 -10.472656 12.410156 -1 40.851562 -5.953125 C 68.8125 -10.820312 92.035156 -25.789062 97.632812 -60.207031 C 97.84375 -60.90625 97.703125 -61.707031 97.589844 -62.351562 C 96.78125 -67.011719 90.890625 -69.464844 85.746094 -68.566406 C 81.890625 -67.898438 78.371094 -65.296875 77.414062 -60.328125 Z M 25.71875 -55.800781 L 26.632812 -59.105469 C 32.460938 -54.160156 37.660156 -47.117188 38.972656 -39.566406 C 40.289062 -32.011719 37.363281 -25.046875 28.902344 -23.242188 C 23.4375 -22.292969 18.199219 -23.863281 15.703125 -27.734375 C 17.042969 -27.636719 18.328125 -27.859375 19.453125 -28.054688 C 28.773438 -29.675781 32.867188 -38.503906 31.496094 -46.375 C 30.855469 -50.074219 28.925781 -53.546875 25.71875 -55.800781 Z M 25.71875 -55.800781 "/></g></g></g></svg>